<svg width="67" height="67" viewBox="0 0 67 67" fill="none" xmlns="http://www.w3.org/2000/svg">
<g filter="url(#filter0_d_35_23)">
<path d="M6.63604 2.63604C10.1508 -0.87868 15.8492 -0.87868 19.364 2.63604L59.669 42.9411C63.1838 46.4558 63.1838 52.1543 59.669 55.669C56.1543 59.1838 50.4558 59.1838 46.9411 55.669L6.63604 15.364C3.12132 11.8492 3.12132 6.15076 6.63604 2.63604Z" fill="#111111"/>
<path d="M6.63604 55.669C3.12132 52.1543 3.12132 46.4558 6.63604 42.9411L46.9411 2.63604C50.4558 -0.878679 56.1543 -0.878679 59.669 2.63604C63.1838 6.15076 63.1838 11.8492 59.669 15.364L19.364 55.669C15.8492 59.1838 10.1508 59.1838 6.63604 55.669Z" fill="#111111"/>
</g>
<defs>
<filter id="filter0_d_35_23" x="0" y="0" width="66.3052" height="66.3051" filterUnits="userSpaceOnUse" color-interpolation-filters="sRGB">
<feFlood flood-opacity="0" result="BackgroundImageFix"/>
<feColorMatrix in="SourceAlpha" type="matrix" values="0 0 0 0 0 0 0 0 0 0 0 0 0 0 0 0 0 0 127 0" result="hardAlpha"/>
<feOffset dy="4"/>
<feGaussianBlur stdDeviation="2"/>
<feComposite in2="hardAlpha" operator="out"/>
<feColorMatrix type="matrix" values="0 0 0 0 0 0 0 0 0 0 0 0 0 0 0 0 0 0 0.25 0"/>
<feBlend mode="normal" in2="BackgroundImageFix" result="effect1_dropShadow_35_23"/>
<feBlend mode="normal" in="SourceGraphic" in2="effect1_dropShadow_35_23" result="shape"/>
</filter>
</defs>
</svg>
