<svg width="70" height="70" viewBox="0 0 70 70" fill="none" xmlns="http://www.w3.org/2000/svg">
<path d="M34.5633 0C15.5189 0 0 15.5189 0 34.5633C0 53.6076 15.5189 69.1265 34.5633 69.1265C53.6076 69.1265 69.1265 53.6076 69.1265 34.5633C69.1265 15.5189 53.6076 0 34.5633 0ZM48.3886 37.1555H37.1555V48.3886C37.1555 49.8056 35.9803 50.9808 34.5633 50.9808C33.1462 50.9808 31.971 49.8056 31.971 48.3886V37.1555H20.738C19.3209 37.1555 18.1457 35.9803 18.1457 34.5633C18.1457 33.1462 19.3209 31.971 20.738 31.971H31.971V20.738C31.971 19.3209 33.1462 18.1457 34.5633 18.1457C35.9803 18.1457 37.1555 19.3209 37.1555 20.738V31.971H48.3886C49.8056 31.971 50.9808 33.1462 50.9808 34.5633C50.9808 35.9803 49.8056 37.1555 48.3886 37.1555Z" fill="#292D32"/>
</svg>
