<svg width="129" height="129" viewBox="0 0 129 129" fill="none" xmlns="http://www.w3.org/2000/svg">
<path d="M122.576 79.06V93.0946C122.576 115.403 109.276 128.702 86.9682 128.702H35.6106C19.9826 128.702 8.70592 122.144 3.4353 110.5L4.10945 110.01L34.2623 89.7851C39.1652 86.4757 46.0906 86.8434 50.4416 90.6432L52.5253 92.3592C57.3056 96.4654 65.0277 96.4654 69.808 92.3592L95.3031 70.48C100.083 66.3738 107.806 66.3738 112.586 70.48L122.576 79.06Z" fill="#292D32"/>
<path opacity="0.4" d="M116.26 42.9004H98.2419C90.4586 42.9004 85.8008 38.2426 85.8008 30.4593V12.4411C85.8008 9.98964 86.2911 7.9059 87.1491 6.1286C87.0878 6.1286 87.0265 6.1286 86.9652 6.1286H35.6073C13.2991 6.1286 0 19.4277 0 41.7359V93.0938C0 99.774 1.16444 105.596 3.43203 110.499L4.10618 110.009L34.259 89.7844C39.1619 86.4749 46.0873 86.8426 50.4386 90.6424L52.5223 92.3584C57.3027 96.4646 65.0247 96.4646 69.8051 92.3584L95.3002 70.4792C100.08 66.373 107.803 66.373 112.583 70.4792L122.573 79.0593V41.7359C122.573 41.6746 122.573 41.6134 122.573 41.5521C120.795 42.4101 118.712 42.9004 116.26 42.9004Z" fill="#292D32"/>
<path d="M42.8952 57.4871C50.9511 57.4871 57.4811 50.9569 57.4811 42.9011C57.4811 34.8454 50.9511 28.315 42.8952 28.315C34.8395 28.315 28.3091 34.8454 28.3091 42.9011C28.3091 50.9569 34.8395 57.4871 42.8952 57.4871Z" fill="#292D32"/>
<path d="M116.26 0H98.2419C90.4585 0 85.8008 4.65776 85.8008 12.4411V30.4593C85.8008 38.2426 90.4585 42.9004 98.2419 42.9004H116.26C124.043 42.9004 128.701 38.2426 128.701 30.4593V12.4411C128.701 4.65776 124.043 0 116.26 0ZM122.021 24.0855C121.408 24.6984 120.489 25.1274 119.508 25.1887H110.867L110.928 33.7075C110.867 34.7493 110.499 35.6073 109.764 36.3428C109.151 36.9556 108.232 37.3846 107.251 37.3846C105.229 37.3846 103.574 35.7299 103.574 33.7075V25.1274L94.9937 25.1887C92.9713 25.1887 91.3165 23.4726 91.3165 21.4502C91.3165 19.4278 92.9713 17.773 94.9937 17.773L103.574 17.8343V9.25423C103.574 7.23178 105.229 5.51577 107.251 5.51577C109.273 5.51577 110.928 7.23178 110.928 9.25423L110.867 17.773H119.508C121.531 17.773 123.185 19.4278 123.185 21.4502C123.124 22.4921 122.695 23.3501 122.021 24.0855Z" fill="#292D32"/>
</svg>
