<svg width="30" height="31" viewBox="0 0 30 31" fill="none" xmlns="http://www.w3.org/2000/svg">
<rect width="30" height="30.015" rx="10" fill="white"/>
<path d="M21.2956 0H8.71934C3.25662 0 0 3.25662 0 8.71934V21.2806C0 26.7583 3.25662 30.015 8.71934 30.015H21.2806C26.7433 30.015 29.9999 26.7583 29.9999 21.2956V8.71934C30.015 3.25662 26.7583 0 21.2956 0ZM20.05 18.4592C20.4852 18.8944 20.4852 19.6148 20.05 20.05C19.8249 20.2751 19.5397 20.3802 19.2546 20.3802C18.9695 20.3802 18.6843 20.2751 18.4592 20.05L15.0075 16.5983L11.5558 20.05C11.3306 20.2751 11.0455 20.3802 10.7604 20.3802C10.4752 20.3802 10.1901 20.2751 9.96497 20.05C9.52975 19.6148 9.52975 18.8944 9.96497 18.4592L13.4167 15.0075L9.96497 11.5558C9.52975 11.1205 9.52975 10.4002 9.96497 9.96497C10.4002 9.52975 11.1205 9.52975 11.5558 9.96497L15.0075 13.4167L18.4592 9.96497C18.8944 9.52975 19.6148 9.52975 20.05 9.96497C20.4852 10.4002 20.4852 11.1205 20.05 11.5558L16.5983 15.0075L20.05 18.4592Z" fill="#E20808"/>
</svg>
