<svg width="60" height="60" viewBox="0 0 60 60" fill="none" xmlns="http://www.w3.org/2000/svg">
<path opacity="0.4" d="M59.9985 17.4296V35.6991L55.1086 31.4992C52.7687 29.4893 48.9888 29.4893 46.6488 31.4992L34.1691 42.2089C31.8292 44.2189 28.0493 44.2189 25.7094 42.2089L24.6894 41.369C22.5594 39.509 19.1695 39.329 16.7696 40.949L2.00995 50.8487L1.67996 51.0887C0.569986 48.6888 0 45.8389 0 42.5689V17.4296C0 6.50984 6.50984 0 17.4296 0H42.5689C53.4887 0 59.9985 6.50984 59.9985 17.4296Z" fill="#292D32"/>
<path d="M20.9972 25.1397C24.9405 25.1397 28.1369 21.9431 28.1369 17.9999C28.1369 14.0567 24.9405 10.8601 20.9972 10.8601C17.054 10.8601 13.8574 14.0567 13.8574 17.9999C13.8574 21.9431 17.054 25.1397 20.9972 25.1397Z" fill="#292D32"/>
<path d="M60 35.6994V42.5692C60 53.4889 53.4902 59.9987 42.5705 59.9987H17.4312C9.78144 59.9987 4.26158 56.7888 1.68164 51.089L2.01163 50.849L16.7713 40.9492C19.1712 39.3293 22.5611 39.5093 24.6909 41.3692L25.7109 42.2092C28.0508 44.2192 31.8307 44.2192 34.1707 42.2092L46.6504 31.4995C48.9903 29.4895 52.7702 29.4895 55.1102 31.4995L60 35.6994Z" fill="#292D32"/>
</svg>
