<svg width="150" height="151" viewBox="0 0 150 151" fill="none" xmlns="http://www.w3.org/2000/svg">
<path d="M1.76946 141.719L1.70853 141.78C0.88596 139.983 0.368044 137.942 0.154785 135.687C0.368044 137.911 0.946891 139.922 1.76946 141.719Z" fill="#292D32"/>
<path d="M21.3294 115.427C25.3339 115.427 28.5803 112.181 28.5803 108.176C28.5803 104.172 25.3339 100.925 21.3294 100.925C17.3249 100.925 14.0786 104.172 14.0786 108.176C14.0786 112.181 17.3249 115.427 21.3294 115.427Z" fill="#292D32"/>
<path opacity="0.5" d="M43.2307 89.8935H17.7005C6.61104 89.8935 0 96.5045 0 107.594V133.124C0 136.445 0.578847 139.339 1.70607 141.776C4.32612 147.565 9.93179 150.825 17.7005 150.825H43.2307C54.3202 150.825 60.9312 144.214 60.9312 133.124V126.148V107.594C60.9312 96.5045 54.3202 89.8935 43.2307 89.8935ZM55.9653 121.882C53.589 119.841 49.7504 119.841 47.374 121.882L34.7003 132.759C32.324 134.8 28.4854 134.8 26.109 132.759L25.0732 131.906C22.9101 130.017 19.4675 129.834 17.0303 131.479L5.63614 139.126C4.9659 137.42 4.56984 135.44 4.56984 133.124V107.594C4.56984 99.0027 9.10922 94.4633 17.7005 94.4633H43.2307C51.822 94.4633 56.3614 99.0027 56.3614 107.594V122.218L55.9653 121.882Z" fill="#292D32"/>
<path d="M144.11 57.7297H135.579C131.895 57.7297 129.689 59.9349 129.689 63.6198V72.1501C129.689 75.835 131.895 78.0401 135.579 78.0401H144.11C147.795 78.0401 150 75.835 150 72.1501V63.6198C150 59.9349 147.795 57.7297 144.11 57.7297ZM138.423 73.891C138.336 73.9781 138.133 74.0941 137.988 74.0941L134.97 74.5293C134.883 74.5584 134.767 74.5584 134.68 74.5584C134.245 74.5584 133.868 74.4133 133.606 74.1231C133.258 73.775 133.113 73.2817 133.2 72.7594L133.635 69.7419C133.664 69.5968 133.752 69.3937 133.839 69.3067L138.771 64.3741C138.858 64.5772 138.945 64.8094 139.032 65.0415C139.148 65.2736 139.264 65.4767 139.38 65.6798C139.467 65.8539 139.584 66.028 139.7 66.144C139.816 66.3181 139.932 66.4922 140.019 66.5793C140.077 66.6663 140.106 66.6953 140.135 66.7243C140.396 67.0435 140.686 67.3337 140.947 67.5368C141.005 67.5948 141.063 67.6528 141.092 67.6528C141.237 67.7689 141.411 67.914 141.528 68.001C141.702 68.1171 141.847 68.2331 142.021 68.3202C142.224 68.4362 142.456 68.5523 142.688 68.6683C142.92 68.7844 143.152 68.8714 143.355 68.9295L138.423 73.891ZM145.357 66.9565L144.429 67.8849C144.371 67.972 144.284 68.001 144.197 68.001C144.168 68.001 144.139 68.001 144.11 68.001C142.021 67.3917 140.367 65.7378 139.758 63.6488C139.729 63.5327 139.758 63.4167 139.845 63.3296L140.802 62.3721C142.369 60.8053 143.849 60.8343 145.386 62.3721C146.17 63.1555 146.547 63.9099 146.547 64.6643C146.518 65.4187 146.141 66.1731 145.357 66.9565Z" fill="#292D32"/>
<path d="M109.382 84.9489C113.196 84.9489 116.288 81.8572 116.288 78.0434C116.288 74.2296 113.196 71.1378 109.382 71.1378C105.568 71.1378 102.477 74.2296 102.477 78.0434C102.477 81.8572 105.568 84.9489 109.382 84.9489Z" fill="#292D32"/>
<path opacity="0.5" d="M144.11 78.0401H142.746V91.416L142.369 91.0968C140.106 89.1528 136.45 89.1528 134.187 91.0968L122.117 101.455C119.854 103.399 116.198 103.399 113.935 101.455L112.948 100.643C110.888 98.8438 107.609 98.6697 105.288 100.237L94.4366 107.519C93.7983 105.894 93.4211 104.008 93.4211 101.803V77.4889C93.4211 69.3067 97.7443 64.9835 105.926 64.9835H129.69V63.6198C129.69 62.4592 129.893 61.4727 130.357 60.6312H105.926C95.3651 60.6312 89.0688 66.9275 89.0688 77.4889V101.803C89.0688 104.966 89.6201 107.722 90.6937 110.044C93.189 115.556 98.5277 118.661 105.926 118.661H130.241C140.802 118.661 147.099 112.365 147.099 101.803V77.3728C146.257 77.837 145.271 78.0401 144.11 78.0401Z" fill="#292D32"/>
<path d="M75.6587 0H67.1283C64.604 0 62.7471 1.04454 61.9056 2.90149C61.4414 3.74292 61.2383 4.72942 61.2383 5.89002V14.4204C61.2383 18.1053 63.4434 20.3104 67.1283 20.3104H75.6587C76.8193 20.3104 77.8058 20.1073 78.6472 19.6431C80.5042 18.8016 81.5487 16.9447 81.5487 14.4204V5.89002C81.5487 2.20513 79.3436 0 75.6587 0ZM78.3861 11.4028C78.0959 11.693 77.6607 11.8961 77.1965 11.9251H73.1054V13.4049L73.1344 15.9582C73.1054 16.4514 72.9313 16.8576 72.5831 17.2058C72.2929 17.496 71.8577 17.6991 71.3935 17.6991C70.436 17.6991 69.6526 16.9157 69.6526 15.9582V11.8961L65.5905 11.9251C64.633 11.9251 63.8496 11.1127 63.8496 10.1552C63.8496 9.19771 64.633 8.41431 65.5905 8.41431L68.1438 8.44333H69.6526V4.38125C69.6526 3.42376 70.436 2.61134 71.3935 2.61134C72.351 2.61134 73.1344 3.42376 73.1344 4.38125L73.1054 6.4413V8.41431H77.1965C78.154 8.41431 78.9374 9.19771 78.9374 10.1552C78.9083 10.6485 78.7052 11.0547 78.3861 11.4028Z" fill="#292D32"/>
<path d="M40.9314 27.2191C44.7452 27.2191 47.837 24.1274 47.837 20.3136C47.837 16.4998 44.7452 13.408 40.9314 13.408C37.1176 13.408 34.0259 16.4998 34.0259 20.3136C34.0259 24.1274 37.1176 27.2191 40.9314 27.2191Z" fill="#292D32"/>
<path opacity="0.2" d="M75.6589 20.3104H74.2952V33.6863L73.918 33.3671C71.6548 31.4231 67.999 31.4231 65.7358 33.3671L53.6656 43.7254C51.4025 45.6694 47.7466 45.6694 45.4834 43.7254L44.4969 42.913C42.4369 41.1141 39.1582 40.94 36.837 42.5068L25.9854 49.7895C25.3471 48.1647 24.9699 46.2787 24.9699 44.0736V19.7591C24.9699 11.5769 29.2931 7.25372 37.4753 7.25372H61.2385V5.89002C61.2385 4.72943 61.4416 3.74292 61.9058 2.90149H37.4753C26.9139 2.90149 20.6177 9.19772 20.6177 19.7591V44.0736C20.6177 47.2362 21.169 49.9926 22.2425 52.3138C24.7378 57.8266 30.0765 60.9312 37.4753 60.9312H61.7898C72.3512 60.9312 78.6474 54.635 78.6474 44.0736V19.6431C77.806 20.1073 76.8195 20.3104 75.6589 20.3104Z" fill="#292D32"/>
</svg>
