<svg width="40" height="40" viewBox="0 0 40 40" fill="none" xmlns="http://www.w3.org/2000/svg">
<path d="M38.0968 24.5716V28.9335C38.0968 35.8669 33.9635 40.0002 27.0302 40.0002H11.0684C6.21122 40.0002 2.70645 37.9621 1.06836 34.3431L1.27788 34.1907L10.6493 27.905C12.1731 26.8764 14.3255 26.9907 15.6778 28.1716L16.3254 28.705C17.8111 29.9812 20.2111 29.9812 21.6968 28.705L29.6206 21.905C31.1064 20.6288 33.5064 20.6288 34.9921 21.905L38.0968 24.5716Z" fill="#292D32"/>
<path opacity="0.4" d="M36.1333 13.3333H30.5333C28.1143 13.3333 26.6667 11.8857 26.6667 9.46666V3.86666C26.6667 3.10475 26.819 2.45714 27.0857 1.90475C27.0667 1.90475 27.0476 1.90475 27.0286 1.90475H11.0667C4.13333 1.90475 0 6.03809 0 12.9714V28.9333C0 31.0095 0.361905 32.819 1.06667 34.3429L1.27619 34.1905L10.6476 27.9048C12.1714 26.8762 14.3238 26.9905 15.6762 28.1714L16.3238 28.7048C17.8095 29.9809 20.2095 29.9809 21.6952 28.7048L29.619 21.9048C31.1048 20.6286 33.5048 20.6286 34.9905 21.9048L38.0952 24.5714V12.9714C38.0952 12.9524 38.0952 12.9333 38.0952 12.9143C37.5429 13.1809 36.8952 13.3333 36.1333 13.3333Z" fill="#292D32"/>
<path d="M13.3322 17.8669C15.8359 17.8669 17.8654 15.8373 17.8654 13.3336C17.8654 10.8299 15.8359 8.80023 13.3322 8.80023C10.8285 8.80023 8.79883 10.8299 8.79883 13.3336C8.79883 15.8373 10.8285 17.8669 13.3322 17.8669Z" fill="#292D32"/>
<path d="M36.1327 0H30.5327C28.1136 0 26.666 1.44762 26.666 3.86667V9.46667C26.666 11.8857 28.1136 13.3333 30.5327 13.3333H36.1327C38.5517 13.3333 39.9993 11.8857 39.9993 9.46667V3.86667C39.9993 1.44762 38.5517 0 36.1327 0ZM32.3993 10.6095C32.3422 10.6667 32.2089 10.7429 32.1136 10.7429L30.1327 11.0286C30.0755 11.0476 29.9993 11.0476 29.9422 11.0476C29.6565 11.0476 29.4089 10.9524 29.2374 10.7619C29.0089 10.5333 28.9136 10.2095 28.9708 9.86667L29.2565 7.88571C29.2755 7.79048 29.3327 7.65714 29.3898 7.6L32.6279 4.3619C32.6851 4.49524 32.7422 4.64762 32.7993 4.8C32.8755 4.95238 32.9517 5.08571 33.0279 5.21905C33.0851 5.33333 33.1613 5.44762 33.2374 5.52381C33.3136 5.6381 33.3898 5.75238 33.447 5.80952C33.4851 5.86667 33.5041 5.88571 33.5232 5.90476C33.6946 6.11429 33.8851 6.30476 34.0565 6.4381C34.0946 6.47619 34.1327 6.51429 34.1517 6.51429C34.247 6.59048 34.3613 6.68571 34.4374 6.74286C34.5517 6.81905 34.647 6.89524 34.7613 6.95238C34.8946 7.02857 35.047 7.10476 35.1993 7.18095C35.3517 7.25714 35.5041 7.31429 35.6374 7.35238L32.3993 10.6095ZM36.9517 6.05714L36.3422 6.66667C36.3041 6.72381 36.247 6.74286 36.1898 6.74286C36.1708 6.74286 36.1517 6.74286 36.1327 6.74286C34.7613 6.34286 33.6755 5.25714 33.2755 3.88571C33.2565 3.80952 33.2755 3.73333 33.3327 3.67619L33.9613 3.04762C34.9898 2.01905 35.9613 2.0381 36.9708 3.04762C37.4851 3.5619 37.7327 4.05714 37.7327 4.55238C37.7136 5.04762 37.466 5.54286 36.9517 6.05714Z" fill="#292D32"/>
</svg>
