<svg width="60" height="61" viewBox="0 0 60 61" fill="none" xmlns="http://www.w3.org/2000/svg">
<path d="M33.6033 12.0119H14.3842C13.6035 12.0119 12.8527 12.0419 12.132 12.132C4.05401 12.8227 0 17.5974 0 26.3961V38.408C0 50.4199 4.80476 52.7923 14.3842 52.7923H15.5854C16.2461 52.7923 17.1169 53.2427 17.5073 53.7532L21.1109 58.558C22.7025 60.6901 25.285 60.6901 26.8766 58.558L30.4802 53.7532C30.9306 53.1526 31.6513 52.7923 32.4021 52.7923H33.6033C42.402 52.7923 47.1767 48.7683 47.8674 40.6603C47.9575 39.9395 47.9875 39.1888 47.9875 38.408V26.3961C47.9875 16.8167 43.1828 12.0119 33.6033 12.0119ZM13.5134 36.0357C11.8317 36.0357 10.5104 34.6843 10.5104 33.0327C10.5104 31.3811 11.8617 30.0297 13.5134 30.0297C15.165 30.0297 16.5164 31.3811 16.5164 33.0327C16.5164 34.6843 15.165 36.0357 13.5134 36.0357ZM23.9938 36.0357C22.3121 36.0357 20.9908 34.6843 20.9908 33.0327C20.9908 31.3811 22.3421 30.0297 23.9938 30.0297C25.6454 30.0297 26.9967 31.3811 26.9967 33.0327C26.9967 34.6843 25.6754 36.0357 23.9938 36.0357ZM34.5042 36.0357C32.8225 36.0357 31.5012 34.6843 31.5012 33.0327C31.5012 31.3811 32.8525 30.0297 34.5042 30.0297C36.1558 30.0297 37.5071 31.3811 37.5071 33.0327C37.5071 34.6843 36.1558 36.0357 34.5042 36.0357Z" fill="#292D32"/>
<path d="M59.9999 14.3842V26.3961C59.9999 32.4021 58.1381 36.4861 54.4144 38.7383C53.5135 39.2789 52.4624 38.5582 52.4624 37.5071L52.4925 26.3961C52.4925 14.3842 45.6157 7.50743 33.6038 7.50743L15.3158 7.53746C14.2648 7.53746 13.5441 6.48642 14.0846 5.58553C16.3368 1.86184 20.4209 0 26.3966 0H45.6157C55.1951 0 59.9999 4.80476 59.9999 14.3842Z" fill="#292D32"/>
</svg>
